<mxfile host="app.diagrams.net" modified="2023-11-15T15:25:16.196Z" agent="Mozilla/5.0 (Windows NT 10.0; Win64; x64; rv:109.0) Gecko/20100101 Firefox/119.0" etag="MHH036G4heukq1UuCff5" version="22.1.1" type="device">
  <diagram name="Page-1" id="42lZsB0KMDUY3N4grp0Q">
    <mxGraphModel dx="1593" dy="2038" grid="1" gridSize="10" guides="1" tooltips="1" connect="1" arrows="1" fold="1" page="1" pageScale="1" pageWidth="827" pageHeight="1169" math="0" shadow="0">
      <root>
        <mxCell id="0" />
        <mxCell id="1" parent="0" />
        <mxCell id="hb75nXnFPQQFzLj9aZLU-49" value="" style="rounded=1;whiteSpace=wrap;html=1;arcSize=3;fillColor=none;strokeWidth=2;" vertex="1" parent="1">
          <mxGeometry x="280" y="160" width="520" height="520" as="geometry" />
        </mxCell>
        <mxCell id="hb75nXnFPQQFzLj9aZLU-10" style="rounded=0;orthogonalLoop=1;jettySize=auto;html=1;exitX=1;exitY=0.5;exitDx=0;exitDy=0;entryX=0;entryY=0.5;entryDx=0;entryDy=0;dashed=1;" edge="1" parent="1" source="hb75nXnFPQQFzLj9aZLU-6" target="hb75nXnFPQQFzLj9aZLU-7">
          <mxGeometry relative="1" as="geometry" />
        </mxCell>
        <mxCell id="hb75nXnFPQQFzLj9aZLU-12" style="rounded=0;orthogonalLoop=1;jettySize=auto;html=1;exitX=0;exitY=0.5;exitDx=0;exitDy=0;entryX=1;entryY=0.5;entryDx=0;entryDy=0;dashed=1;" edge="1" parent="1" source="hb75nXnFPQQFzLj9aZLU-6" target="hb75nXnFPQQFzLj9aZLU-11">
          <mxGeometry relative="1" as="geometry" />
        </mxCell>
        <mxCell id="hb75nXnFPQQFzLj9aZLU-61" style="edgeStyle=orthogonalEdgeStyle;rounded=0;orthogonalLoop=1;jettySize=auto;html=1;" edge="1" parent="1" source="hb75nXnFPQQFzLj9aZLU-6">
          <mxGeometry relative="1" as="geometry">
            <mxPoint x="540" y="120" as="targetPoint" />
          </mxGeometry>
        </mxCell>
        <mxCell id="hb75nXnFPQQFzLj9aZLU-6" value="FileT" style="rounded=1;whiteSpace=wrap;html=1;strokeWidth=2;fillColor=#fff2cc;strokeColor=#d6b656;" vertex="1" parent="1">
          <mxGeometry x="480" y="200" width="120" height="120" as="geometry" />
        </mxCell>
        <mxCell id="hb75nXnFPQQFzLj9aZLU-7" value="FileB" style="rounded=1;whiteSpace=wrap;html=1;strokeWidth=2;fillColor=#fff2cc;strokeColor=#d6b656;dashed=1;" vertex="1" parent="1">
          <mxGeometry x="640" y="200" width="120" height="120" as="geometry" />
        </mxCell>
        <mxCell id="hb75nXnFPQQFzLj9aZLU-11" value="FileA" style="rounded=1;whiteSpace=wrap;html=1;strokeWidth=2;fillColor=#fff2cc;strokeColor=#d6b656;dashed=1;" vertex="1" parent="1">
          <mxGeometry x="320" y="200" width="120" height="120" as="geometry" />
        </mxCell>
        <mxCell id="hb75nXnFPQQFzLj9aZLU-16" style="rounded=0;orthogonalLoop=1;jettySize=auto;html=1;exitX=0.25;exitY=0;exitDx=0;exitDy=0;entryX=1;entryY=1;entryDx=0;entryDy=0;" edge="1" parent="1" source="hb75nXnFPQQFzLj9aZLU-15" target="hb75nXnFPQQFzLj9aZLU-11">
          <mxGeometry relative="1" as="geometry" />
        </mxCell>
        <mxCell id="hb75nXnFPQQFzLj9aZLU-21" style="rounded=0;orthogonalLoop=1;jettySize=auto;html=1;exitX=0.75;exitY=1;exitDx=0;exitDy=0;entryX=0;entryY=0;entryDx=0;entryDy=0;" edge="1" parent="1" source="hb75nXnFPQQFzLj9aZLU-15" target="hb75nXnFPQQFzLj9aZLU-20">
          <mxGeometry relative="1" as="geometry">
            <mxPoint x="640" y="560" as="targetPoint" />
          </mxGeometry>
        </mxCell>
        <mxCell id="hb75nXnFPQQFzLj9aZLU-26" style="edgeStyle=orthogonalEdgeStyle;rounded=0;orthogonalLoop=1;jettySize=auto;html=1;entryX=0.5;entryY=0;entryDx=0;entryDy=0;" edge="1" parent="1" source="hb75nXnFPQQFzLj9aZLU-15" target="hb75nXnFPQQFzLj9aZLU-24">
          <mxGeometry relative="1" as="geometry" />
        </mxCell>
        <mxCell id="hb75nXnFPQQFzLj9aZLU-28" style="rounded=0;orthogonalLoop=1;jettySize=auto;html=1;exitX=0.75;exitY=0;exitDx=0;exitDy=0;entryX=0;entryY=1;entryDx=0;entryDy=0;" edge="1" parent="1" source="hb75nXnFPQQFzLj9aZLU-15" target="hb75nXnFPQQFzLj9aZLU-7">
          <mxGeometry relative="1" as="geometry" />
        </mxCell>
        <mxCell id="hb75nXnFPQQFzLj9aZLU-29" style="edgeStyle=orthogonalEdgeStyle;rounded=0;orthogonalLoop=1;jettySize=auto;html=1;entryX=0.5;entryY=1;entryDx=0;entryDy=0;" edge="1" parent="1" source="hb75nXnFPQQFzLj9aZLU-15" target="hb75nXnFPQQFzLj9aZLU-6">
          <mxGeometry relative="1" as="geometry" />
        </mxCell>
        <mxCell id="hb75nXnFPQQFzLj9aZLU-56" style="edgeStyle=orthogonalEdgeStyle;rounded=0;orthogonalLoop=1;jettySize=auto;html=1;entryX=0;entryY=0.5;entryDx=0;entryDy=0;" edge="1" parent="1" source="hb75nXnFPQQFzLj9aZLU-15" target="hb75nXnFPQQFzLj9aZLU-22">
          <mxGeometry relative="1" as="geometry" />
        </mxCell>
        <mxCell id="hb75nXnFPQQFzLj9aZLU-15" value="GUI" style="rounded=1;whiteSpace=wrap;html=1;strokeWidth=2;fillColor=#fff2cc;strokeColor=#d6b656;" vertex="1" parent="1">
          <mxGeometry x="480" y="360" width="120" height="120" as="geometry" />
        </mxCell>
        <mxCell id="hb75nXnFPQQFzLj9aZLU-19" style="edgeStyle=orthogonalEdgeStyle;rounded=0;orthogonalLoop=1;jettySize=auto;html=1;entryX=0;entryY=0.5;entryDx=0;entryDy=0;" edge="1" parent="1" source="hb75nXnFPQQFzLj9aZLU-18" target="hb75nXnFPQQFzLj9aZLU-15">
          <mxGeometry relative="1" as="geometry" />
        </mxCell>
        <mxCell id="hb75nXnFPQQFzLj9aZLU-18" value="Main" style="rounded=1;whiteSpace=wrap;html=1;strokeWidth=2;fillColor=#fff2cc;strokeColor=#d6b656;" vertex="1" parent="1">
          <mxGeometry x="320" y="360" width="120" height="120" as="geometry" />
        </mxCell>
        <mxCell id="hb75nXnFPQQFzLj9aZLU-20" value="Config" style="rounded=1;whiteSpace=wrap;html=1;strokeWidth=2;fillColor=#fff2cc;strokeColor=#d6b656;" vertex="1" parent="1">
          <mxGeometry x="640" y="520" width="120" height="120" as="geometry" />
        </mxCell>
        <mxCell id="hb75nXnFPQQFzLj9aZLU-22" value="Translation" style="rounded=1;whiteSpace=wrap;html=1;strokeWidth=2;fillColor=#fff2cc;strokeColor=#d6b656;" vertex="1" parent="1">
          <mxGeometry x="640" y="360" width="120" height="120" as="geometry" />
        </mxCell>
        <mxCell id="hb75nXnFPQQFzLj9aZLU-24" value="Tools" style="rounded=1;whiteSpace=wrap;html=1;strokeWidth=2;fillColor=#fff2cc;strokeColor=#d6b656;" vertex="1" parent="1">
          <mxGeometry x="480" y="524" width="120" height="120" as="geometry" />
        </mxCell>
        <mxCell id="hb75nXnFPQQFzLj9aZLU-62" style="edgeStyle=orthogonalEdgeStyle;rounded=0;orthogonalLoop=1;jettySize=auto;html=1;" edge="1" parent="1" source="hb75nXnFPQQFzLj9aZLU-33" target="hb75nXnFPQQFzLj9aZLU-18">
          <mxGeometry relative="1" as="geometry" />
        </mxCell>
        <mxCell id="hb75nXnFPQQFzLj9aZLU-33" value="User" style="shape=umlActor;verticalLabelPosition=bottom;verticalAlign=top;html=1;outlineConnect=0;" vertex="1" parent="1">
          <mxGeometry x="200" y="390" width="30" height="60" as="geometry" />
        </mxCell>
        <mxCell id="hb75nXnFPQQFzLj9aZLU-34" value="" style="group;strokeWidth=2;" vertex="1" connectable="0" parent="1">
          <mxGeometry x="660" y="720" width="80" height="120" as="geometry" />
        </mxCell>
        <mxCell id="hb75nXnFPQQFzLj9aZLU-35" value="config" style="shape=note;whiteSpace=wrap;html=1;backgroundOutline=1;darkOpacity=0.05;strokeWidth=2;fillColor=#e1d5e7;strokeColor=#9673a6;" vertex="1" parent="hb75nXnFPQQFzLj9aZLU-34">
          <mxGeometry width="80" height="100" as="geometry" />
        </mxCell>
        <mxCell id="hb75nXnFPQQFzLj9aZLU-36" value=".&lt;font face=&quot;Courier New&quot;&gt;&lt;b&gt;json&lt;/b&gt;&lt;/font&gt;" style="html=1;strokeWidth=2;shape=manualInput;whiteSpace=wrap;rounded=1;size=13;arcSize=12;fillColor=#e1d5e7;strokeColor=#9673a6;" vertex="1" parent="hb75nXnFPQQFzLj9aZLU-34">
          <mxGeometry y="70" width="80" height="50" as="geometry" />
        </mxCell>
        <mxCell id="hb75nXnFPQQFzLj9aZLU-37" value="" style="group;strokeWidth=2;" vertex="1" connectable="0" parent="1">
          <mxGeometry x="340" width="80" height="120" as="geometry" />
        </mxCell>
        <mxCell id="hb75nXnFPQQFzLj9aZLU-38" value="fileA" style="shape=note;whiteSpace=wrap;html=1;backgroundOutline=1;darkOpacity=0.05;strokeWidth=2;fillColor=#d5e8d4;strokeColor=#82b366;" vertex="1" parent="hb75nXnFPQQFzLj9aZLU-37">
          <mxGeometry width="80" height="100" as="geometry" />
        </mxCell>
        <mxCell id="hb75nXnFPQQFzLj9aZLU-39" value="&lt;font face=&quot;Courier New&quot;&gt;&lt;b&gt;csv&lt;/b&gt;&lt;/font&gt;" style="html=1;strokeWidth=2;shape=manualInput;whiteSpace=wrap;rounded=1;size=13;arcSize=12;fillColor=#d5e8d4;strokeColor=#82b366;" vertex="1" parent="hb75nXnFPQQFzLj9aZLU-37">
          <mxGeometry y="70" width="80" height="50" as="geometry" />
        </mxCell>
        <mxCell id="hb75nXnFPQQFzLj9aZLU-40" value="" style="group;strokeWidth=2;" vertex="1" connectable="0" parent="1">
          <mxGeometry x="660" width="80" height="120" as="geometry" />
        </mxCell>
        <mxCell id="hb75nXnFPQQFzLj9aZLU-41" value="fileB" style="shape=note;whiteSpace=wrap;html=1;backgroundOutline=1;darkOpacity=0.05;strokeWidth=2;fillColor=#d5e8d4;strokeColor=#82b366;" vertex="1" parent="hb75nXnFPQQFzLj9aZLU-40">
          <mxGeometry width="80" height="100" as="geometry" />
        </mxCell>
        <mxCell id="hb75nXnFPQQFzLj9aZLU-42" value="&lt;font face=&quot;Courier New&quot;&gt;&lt;b&gt;csv&lt;/b&gt;&lt;/font&gt;" style="html=1;strokeWidth=2;shape=manualInput;whiteSpace=wrap;rounded=1;size=13;arcSize=12;fillColor=#d5e8d4;strokeColor=#82b366;" vertex="1" parent="hb75nXnFPQQFzLj9aZLU-40">
          <mxGeometry y="70" width="80" height="50" as="geometry" />
        </mxCell>
        <mxCell id="hb75nXnFPQQFzLj9aZLU-43" value="" style="group;strokeWidth=2;" vertex="1" connectable="0" parent="1">
          <mxGeometry x="340" y="720" width="80" height="120" as="geometry" />
        </mxCell>
        <mxCell id="hb75nXnFPQQFzLj9aZLU-44" value="credits" style="shape=note;whiteSpace=wrap;html=1;backgroundOutline=1;darkOpacity=0.05;strokeWidth=2;fillColor=#f5f5f5;strokeColor=#666666;fontColor=#333333;" vertex="1" parent="hb75nXnFPQQFzLj9aZLU-43">
          <mxGeometry width="80" height="100" as="geometry" />
        </mxCell>
        <mxCell id="hb75nXnFPQQFzLj9aZLU-45" value=".&lt;font face=&quot;Courier New&quot;&gt;&lt;b&gt;txt&lt;/b&gt;&lt;/font&gt;" style="html=1;strokeWidth=2;shape=manualInput;whiteSpace=wrap;rounded=1;size=13;arcSize=12;fillColor=#f5f5f5;strokeColor=#666666;fontColor=#333333;" vertex="1" parent="hb75nXnFPQQFzLj9aZLU-43">
          <mxGeometry y="70" width="80" height="50" as="geometry" />
        </mxCell>
        <mxCell id="hb75nXnFPQQFzLj9aZLU-46" value="" style="group;strokeWidth=2;" vertex="1" connectable="0" parent="1">
          <mxGeometry x="500" width="80" height="120" as="geometry" />
        </mxCell>
        <mxCell id="hb75nXnFPQQFzLj9aZLU-47" value="results" style="shape=note;whiteSpace=wrap;html=1;backgroundOutline=1;darkOpacity=0.05;strokeWidth=2;fillColor=#d5e8d4;strokeColor=#82b366;" vertex="1" parent="hb75nXnFPQQFzLj9aZLU-46">
          <mxGeometry width="80" height="100" as="geometry" />
        </mxCell>
        <mxCell id="hb75nXnFPQQFzLj9aZLU-48" value="&lt;font face=&quot;Courier New&quot;&gt;&lt;b&gt;csv&lt;/b&gt;&lt;/font&gt;" style="html=1;strokeWidth=2;shape=manualInput;whiteSpace=wrap;rounded=1;size=13;arcSize=12;fillColor=#d5e8d4;strokeColor=#82b366;" vertex="1" parent="hb75nXnFPQQFzLj9aZLU-46">
          <mxGeometry y="70" width="80" height="50" as="geometry" />
        </mxCell>
        <mxCell id="hb75nXnFPQQFzLj9aZLU-58" style="edgeStyle=orthogonalEdgeStyle;rounded=0;orthogonalLoop=1;jettySize=auto;html=1;entryX=0.5;entryY=0;entryDx=0;entryDy=0;" edge="1" parent="1" source="hb75nXnFPQQFzLj9aZLU-39" target="hb75nXnFPQQFzLj9aZLU-11">
          <mxGeometry relative="1" as="geometry" />
        </mxCell>
        <mxCell id="hb75nXnFPQQFzLj9aZLU-60" style="edgeStyle=orthogonalEdgeStyle;rounded=0;orthogonalLoop=1;jettySize=auto;html=1;entryX=0.5;entryY=0;entryDx=0;entryDy=0;" edge="1" parent="1" source="hb75nXnFPQQFzLj9aZLU-42" target="hb75nXnFPQQFzLj9aZLU-7">
          <mxGeometry relative="1" as="geometry" />
        </mxCell>
        <mxCell id="hb75nXnFPQQFzLj9aZLU-63" style="edgeStyle=orthogonalEdgeStyle;rounded=0;orthogonalLoop=1;jettySize=auto;html=1;entryX=0.5;entryY=1;entryDx=0;entryDy=0;" edge="1" parent="1" source="hb75nXnFPQQFzLj9aZLU-35" target="hb75nXnFPQQFzLj9aZLU-20">
          <mxGeometry relative="1" as="geometry" />
        </mxCell>
        <mxCell id="hb75nXnFPQQFzLj9aZLU-64" style="edgeStyle=orthogonalEdgeStyle;rounded=0;orthogonalLoop=1;jettySize=auto;html=1;entryX=0.5;entryY=1;entryDx=0;entryDy=0;" edge="1" parent="1" source="hb75nXnFPQQFzLj9aZLU-44" target="hb75nXnFPQQFzLj9aZLU-18">
          <mxGeometry relative="1" as="geometry" />
        </mxCell>
      </root>
    </mxGraphModel>
  </diagram>
</mxfile>
